<?xml version="1.0" encoding="UTF-8"?>
<svg version="1.1" xmlns="http://www.w3.org/2000/svg" width="1080" height="1080">
<path d="M0 0 C356.4 0 712.8 0 1080 0 C1080 356.4 1080 712.8 1080 1080 C723.6 1080 367.2 1080 0 1080 C0 723.6 0 367.2 0 0 Z " fill="#0099C2" transform="translate(0,0)"/>
<path d="M0 0 C102.63 0 205.26 0 311 0 C311 37.95 311 75.9 311 115 C276.02 115 241.04 115 205 115 C205.144375 130.63375 205.28875 146.2675 205.4375 162.375 C205.48060303 167.21333496 205.52370605 172.05166992 205.56811523 177.03662109 C205.74957554 196.52398183 205.95123704 216.01197006 206.35585213 235.49617386 C206.39119679 237.23260978 206.42399787 238.96909995 206.45385551 240.70563889 C206.65734107 252.24318857 207.55216233 263.55266281 209 275 C209.19697731 276.61856148 209.19697731 276.61856148 209.39793396 278.26982117 C210.77189485 289.48260925 212.80570245 300.15242627 216 311 C216.4396519 312.70778079 216.87726174 314.41608904 217.3125 316.125 C227.13641211 351.55378941 243.09516766 385.99333998 266.68066406 414.40429688 C267.94814014 415.93727683 269.18953889 417.49170472 270.4296875 419.046875 C282.03374675 433.28986361 295.2859968 446.9644976 310 458 C311.18314798 458.92207937 312.36536892 459.84534896 313.546875 460.76953125 C334.51973593 477.01254486 362.35659839 497.28961288 389 502 C389 502.66 389 503.32 389 504 C381.39985857 504.07085567 373.79975301 504.1234745 366.19935226 504.15543652 C362.66663351 504.1708098 359.13414734 504.19149654 355.6015625 504.22631836 C311.34220862 504.65050821 265.35396183 498.81866206 226 477 C225.16001465 476.53899902 224.3200293 476.07799805 223.45458984 475.60302734 C205.61664635 465.70570303 189.64592542 454.2075067 175 440 C174.40977051 439.43555176 173.81954102 438.87110352 173.21142578 438.28955078 C164.84348793 430.26659362 157.14730093 422.03493055 150.25878906 412.703125 C149.02930604 411.03965069 147.77783788 409.39472448 146.5234375 407.75 C135.72497392 393.35775637 127.27141805 377.37220283 119.91015625 360.99658203 C118.98739581 358.97235057 118.03102969 356.96754144 117.0625 354.96484375 C114.1297044 348.879387 111.37168309 342.92263617 109.703125 336.34375 C108.99888222 333.82119919 108.99888222 333.82119919 107.60546875 330.8359375 C105.65865947 326.38982995 104.36762072 321.79275611 103.0625 317.125 C102.80162598 316.19445801 102.54075195 315.26391602 102.27197266 314.30517578 C101.50442771 311.53945706 100.74916979 308.77074723 100 306 C99.80229004 305.27490234 99.60458008 304.54980469 99.40087891 303.80273438 C92.82533131 279.26835696 91.40758906 254.81442736 91.59442425 229.57878709 C91.61993986 225.53104449 91.6218184 221.4832812 91.62652588 217.43547058 C91.63881189 209.81828147 91.67143205 202.20133019 91.71192384 194.58424443 C91.76559348 184.25745446 91.78670359 173.93059647 91.80993271 163.60370159 C91.8472094 147.40229061 91.9269934 131.20138078 92 115 C61.64 115 31.28 115 0 115 C0 77.05 0 39.1 0 0 Z " fill="#FEFEFE" transform="translate(241,291)"/>
<path d="M0 0 C15.77324263 0 15.77324263 0 21.296875 0.91796875 C22.51375 1.117854 23.730625 1.31773926 24.984375 1.52368164 C26.22703125 1.7427417 27.4696875 1.96180176 28.75 2.1875 C29.40097656 2.29915497 30.05195312 2.41080994 30.72265625 2.52584839 C40.70429229 4.24128948 50.43768127 6.40603946 60.10644531 9.42236328 C63.17455208 10.35830199 66.27849484 11.1637421 69.375 12 C75.82380809 13.85625095 81.86935496 16.28865821 88 19 C89.24677446 19.53270664 90.49420475 20.06388023 91.7421875 20.59375 C130.52930057 37.15190737 166.00598251 61.35783584 192 95 C192.78503906 95.96808594 193.57007813 96.93617188 194.37890625 97.93359375 C210.79737091 118.34906292 223.12595414 142.5081327 232.24072266 166.97021484 C232.87321653 168.66106823 233.53287332 170.34172988 234.19921875 172.01953125 C242 192.09189723 242 192.09189723 242 201 C203.06 201 164.12 201 124 201 C121.03 195.39 118.06 189.78 115 184 C93.07742752 151.25849565 65.30741677 129.40448357 27 119 C18.09 117.68 9.18 116.36 0 115 C0 77.05 0 39.1 0 0 Z " fill="#FEFEFE" transform="translate(594,292)"/>
<path d="M0 0 C0.86584717 0.00563965 1.73169434 0.0112793 2.6237793 0.01708984 C29.5215143 0.51405705 52.68139849 11.66015318 71.4140625 30.984375 C81.94424978 42.73716829 88.96542555 57.01934124 92.5 72.3125 C92.67732666 72.98837158 92.85465332 73.66424316 93.03735352 74.3605957 C94.49934402 80.21824834 94.77118477 85.72910071 94.6875 91.75 C94.6865332 93.06581055 94.6865332 93.06581055 94.68554688 94.40820312 C94.62017664 104.26458252 93.71141028 112.95620375 90.3125 122.25 C89.99788818 123.12317871 89.68327637 123.99635742 89.35913086 124.89599609 C80.55674462 148.74032242 63.59935103 165.68457839 40.93823242 176.55957031 C19.66779625 186.35631791 -6.24270178 188.21358266 -28.5 180.3125 C-29.56992187 179.93867187 -30.63984375 179.56484375 -31.7421875 179.1796875 C-53.92770199 170.65548219 -72.0838891 153.03130471 -82.0703125 131.625 C-91.24762598 110.3617163 -93.81991413 84.32506982 -85.33447266 62.33740234 C-80.97943957 51.76963042 -75.74969057 42.20858976 -68.5 33.3125 C-67.48679687 32.05373047 -67.48679687 32.05373047 -66.453125 30.76953125 C-53.68998687 15.7472245 -37.59258632 6.8748281 -18.5 2.3125 C-17.81180176 2.13517334 -17.12360352 1.95784668 -16.41455078 1.77514648 C-10.89081877 0.42162131 -5.67936663 -0.03942831 0 0 Z " fill="#0299C2" transform="translate(580.5,449.6875)"/>
<path d="M0 0 C1.30814667 -0.00116821 2.61629333 -0.00233643 3.96408081 -0.00354004 C7.5305026 -0.00582426 11.09474734 0.04101772 14.66066551 0.09705162 C18.39479742 0.14725447 22.128986 0.1517764 25.86340332 0.16125488 C32.92555928 0.18606428 39.98671784 0.25163561 47.04843569 0.3320508 C55.09185762 0.42164572 63.13532862 0.46549969 71.17912579 0.50561428 C87.71700514 0.58910857 104.25388287 0.72971088 120.79101562 0.90820312 C120.16224406 4.23818571 119.4279913 7.02448963 117.92773438 10.06835938 C117.34910645 11.24313843 117.34910645 11.24313843 116.75878906 12.44165039 C116.12505371 13.69353149 116.12505371 13.69353149 115.47851562 14.97070312 C114.81190918 16.28929321 114.81190918 16.28929321 114.13183594 17.63452148 C88.59052027 67.40995502 49.97212874 108.19099103 -1.46337891 131.12207031 C-2.87320867 131.75698665 -4.26183694 132.43885434 -5.64257812 133.13476562 C-32.35066649 141.18377856 -70.98713006 120.53318583 -93.85131836 108.54663086 C-102.42900702 103.93166207 -110.40548766 98.72389374 -118.20898438 92.90820312 C-119.05396484 92.28631104 -119.05396484 92.28631104 -119.91601562 91.65185547 C-123.74906999 88.82082615 -127.49865482 85.89790322 -131.20898438 82.90820312 C-131.73073242 82.49086914 -132.25248047 82.07353516 -132.79003906 81.64355469 C-140.99547579 75.02206298 -148.54435072 67.77367961 -156.02148438 60.34570312 C-156.89289062 59.48356201 -157.76429688 58.6214209 -158.66210938 57.7331543 C-166.73517085 49.62092557 -173.84991122 40.81984986 -180.77148438 31.72070312 C-181.20783203 31.15029297 -181.64417969 30.57988281 -182.09375 29.9921875 C-183.13380546 28.63211498 -184.17166402 27.27036284 -185.20898438 25.90820312 C-184.54898438 25.57820312 -183.88898437 25.24820313 -183.20898438 24.90820312 C-181.49414062 25.65820312 -181.49414062 25.65820312 -179.27148438 26.90820312 C-145.96015752 44.16472021 -106.49947218 47.96554711 -70.58398438 37.1628418 C-53.26463197 31.51407467 -31.31213818 21.42128529 -19.60712433 6.92424774 C-13.80804817 -0.03295365 -8.71620787 -0.20477851 0 0 Z " fill="#FEFEFE" transform="translate(701.208984375,642.091796875)"/>
<path d="M0 0 C0.86584717 0.00563965 1.73169434 0.0112793 2.6237793 0.01708984 C29.5215143 0.51405705 52.68139849 11.66015318 71.4140625 30.984375 C81.94424978 42.73716829 88.96542555 57.01934124 92.5 72.3125 C92.67732666 72.98837158 92.85465332 73.66424316 93.03735352 74.3605957 C94.49934402 80.21824834 94.77118477 85.72910071 94.6875 91.75 C94.6865332 93.06581055 94.6865332 93.06581055 94.68554688 94.40820312 C94.62017664 104.26458252 93.71141028 112.95620375 90.3125 122.25 C89.99788818 123.12317871 89.68327637 123.99635742 89.35913086 124.89599609 C80.55674462 148.74032242 63.59935103 165.68457839 40.93823242 176.55957031 C19.66779625 186.35631791 -6.24270178 188.21358266 -28.5 180.3125 C-29.56992187 179.93867187 -30.63984375 179.56484375 -31.7421875 179.1796875 C-53.92770199 170.65548219 -72.0838891 153.03130471 -82.0703125 131.625 C-91.24762598 110.3617163 -93.81991413 84.32506982 -85.33447266 62.33740234 C-80.97943957 51.76963042 -75.74969057 42.20858976 -68.5 33.3125 C-67.48679687 32.05373047 -67.48679687 32.05373047 -66.453125 30.76953125 C-53.68998687 15.7472245 -37.59258632 6.8748281 -18.5 2.3125 C-17.81180176 2.13517334 -17.12360352 1.95784668 -16.41455078 1.77514648 C-10.89081877 0.42162131 -5.67936663 -0.03942831 0 0 Z M-47.5 38.3125 C-48.41652344 39.08980469 -48.41652344 39.08980469 -49.3515625 39.8828125 C-62.42601047 51.76324696 -70.24845899 70.54554893 -71.8203125 87.8359375 C-72.48268785 108.5462067 -65.50265624 128.00065232 -51.5 143.3125 C-50.67242188 144.25996094 -50.67242188 144.25996094 -49.828125 145.2265625 C-37.66409428 158.37530047 -18.79731461 165.95147456 -1.14038086 166.76586914 C18.68439569 167.17394461 37.89137498 160.15295237 52.75390625 147.02734375 C67.58607183 132.36396527 75.60961934 113.78241825 76 93.0625 C75.94364254 72.06371123 67.10126737 54.37404152 52.875 39.25 C45.20390226 31.74236553 35.61924004 25.93025939 25.5 22.3125 C24.27216797 21.86583984 24.27216797 21.86583984 23.01953125 21.41015625 C-1.67086621 13.85329271 -28.66862219 21.38465496 -47.5 38.3125 Z " fill="#FCFDFE" transform="translate(580.5,449.6875)"/>
<path d="M0 0 C0.495 0.99 0.495 0.99 1 2 C0.23413086 4.18188477 0.23413086 4.18188477 -1.03515625 6.94140625 C-1.50848389 7.98490234 -1.98181152 9.02839844 -2.46948242 10.10351562 C-2.99517822 11.24498047 -3.52087402 12.38644531 -4.0625 13.5625 C-5.16663753 16.00018454 -6.26868102 18.43869078 -7.3671875 20.87890625 C-7.65758408 21.52268219 -7.94798065 22.16645813 -8.24717712 22.82974243 C-11.84595136 30.8355985 -15.26720028 38.91669797 -18.6875 47 C-18.99672394 47.72881378 -19.30594788 48.45762756 -19.62454224 49.20852661 C-23.02286889 57.02350243 -23.02286889 57.02350243 -26 65 C-28.07177734 66.20701599 -28.07177734 66.20701599 -30.8359375 67.38842773 C-31.8679126 67.83576767 -32.8998877 68.2831076 -33.96313477 68.7440033 C-35.08905029 69.21906815 -36.21496582 69.694133 -37.375 70.18359375 C-38.52863037 70.68037125 -39.68226074 71.17714874 -40.87084961 71.6889801 C-43.94832222 73.01200826 -47.02947784 74.32560931 -50.112854 75.63476562 C-53.21773528 76.95548747 -56.31771829 78.28759345 -59.41796875 79.61914062 C-64.99353587 82.01234017 -70.57346155 84.39507833 -76.15673828 86.77023315 C-79.52353202 88.22643794 -82.85538958 89.75246449 -86.17553711 91.31190491 C-88 92 -88 92 -91 92 C-88.99113805 85.63750257 -86.62698825 79.51292827 -83.98046875 73.390625 C-83.59941483 72.5019574 -83.2183609 71.61328979 -82.82575989 70.69769287 C-82.02317422 68.82799593 -81.21884206 66.95904781 -80.4128418 65.09082031 C-79.19752509 62.27324208 -77.98795196 59.45325381 -76.77929688 56.6328125 C-75.23446646 53.02965247 -73.6713704 49.43525865 -72.09521484 45.84570312 C-70.80638212 42.90304197 -69.58017444 39.95434351 -68.43994141 36.95117188 C-67.98151855 35.80712891 -67.5230957 34.66308594 -67.05078125 33.484375 C-66.69282471 32.52756836 -66.33486816 31.57076172 -65.96606445 30.58496094 C-62.86399814 26.50639666 -58.62164315 25.00997537 -54 23 C-53.19812759 22.64033142 -52.39625519 22.28066284 -51.57008362 21.91009521 C-49.14192664 20.8337626 -46.70250866 19.78818182 -44.2578125 18.75 C-43.36818817 18.3694043 -42.47856384 17.98880859 -41.5619812 17.59667969 C-38.75086402 16.39492994 -35.93794957 15.19745331 -33.125 14 C-31.24858339 13.19818464 -29.37228044 12.39610321 -27.49609375 11.59375 C-18.34885087 7.68534409 -9.19418886 3.79692572 0 0 Z " fill="#FBFDFD" transform="translate(628,496)"/>
<path d="M0 0 C0 0.66 0 1.32 0 2 C-1.98 2.66 -3.96 3.32 -6 4 C-6 4.66 -6 5.32 -6 6 C-5.360625 5.855625 -4.72125 5.71125 -4.0625 5.5625 C-3.051875 5.376875 -2.04125 5.19125 -1 5 C-0.27554688 4.85820313 0.44890625 4.71640625 1.1953125 4.5703125 C7.34112218 3.57643569 7.34112218 3.57643569 10.625 5.6875 C12 8 12 8 11.90307617 10.01733398 C11 12 11 12 8.8137207 13.14086914 C7.38419067 13.58354126 7.38419067 13.58354126 5.92578125 14.03515625 C4.87148926 14.36837891 3.81719727 14.70160156 2.73095703 15.04492188 C1.60286621 15.38072266 0.47477539 15.71652344 -0.6875 16.0625 C-2.39123779 16.5874707 -2.39123779 16.5874707 -4.12939453 17.12304688 C-23.5172526 23 -23.5172526 23 -31 23 C-29.95460281 20.74837528 -28.88843583 18.85410839 -27.375 16.875 C-25.80287878 15.11872074 -25.80287878 15.11872074 -26 13 C-31.03193234 13.6814075 -36.0295558 14.45258839 -41 15.5 C-41.67289063 15.61085938 -42.34578125 15.72171875 -43.0390625 15.8359375 C-47.86243548 16.89745202 -49.52886545 18.46150949 -52.203125 22.6171875 C-54.29924685 25.56196571 -55.27603669 26.80679198 -58.80664062 27.74902344 C-62.16095379 27.92323331 -65.39802825 27.83497545 -68.75 27.625 C-70.42449219 27.57666016 -70.42449219 27.57666016 -72.1328125 27.52734375 C-75.42894886 27.41593588 -78.70962188 27.22196896 -82 27 C-83.04808838 26.94247559 -84.09617676 26.88495117 -85.17602539 26.82568359 C-86.15563232 26.75945801 -87.13523926 26.69323242 -88.14453125 26.625 C-89.01182861 26.56828125 -89.87912598 26.5115625 -90.77270508 26.453125 C-93 26 -93 26 -95.9375 23.375 C-96.618125 22.26125 -97.29875 21.1475 -98 20 C-98.38929688 19.37867188 -98.77859375 18.75734375 -99.1796875 18.1171875 C-102 13.46853448 -102 13.46853448 -102 11 C-98.83735967 8.89157311 -95.75902994 8.5415509 -91.9921875 8.58984375 C-90 9 -90 9 -87.25 11.625 C-85.83620518 13.08937845 -85.83620518 13.08937845 -84 14 C-81.45012776 13.96834972 -81.45012776 13.96834972 -78.6484375 13.3515625 C-77.57722656 13.14644043 -76.50601563 12.94131836 -75.40234375 12.72998047 C-69.69952315 11.50642754 -64.03528834 10.15628522 -58.375 8.75 C-55.82176792 8.12827622 -53.26837895 7.50719642 -50.71484375 6.88671875 C-46.91543158 5.9594386 -43.11693936 5.02897489 -39.32080078 4.08837891 C-35.86261642 3.23389256 -32.40061811 2.39672983 -28.9375 1.5625 C-27.91124512 1.3037207 -26.88499023 1.04494141 -25.82763672 0.77832031 C-17.17810495 -1.28264019 -8.73605321 -1.97316868 0 0 Z " fill="#F9FCFD" transform="translate(826,555)"/>
<path d="M0 0 C-0.61746094 0.66644531 -1.23492188 1.33289063 -1.87109375 2.01953125 C-2.71800781 2.94121094 -3.56492187 3.86289062 -4.4375 4.8125 C-4.88762451 5.30226318 -5.33774902 5.79202637 -5.80151367 6.29663086 C-9.7321179 10.61554491 -13.34673291 15.14572765 -16.89453125 19.78515625 C-20.87395945 23.971308 -25.4348779 24.34527975 -31 25 C-19.74308381 4.66835941 -19.74308381 4.66835941 -11.91015625 0.26171875 C-7.59266491 -0.96108752 -4.31455533 -1.34829854 0 0 Z " fill="#F2F8FB" transform="translate(794,573)"/>
<path d="M0 0 C2.75025718 1.7569363 3.35449951 2.98324911 5 6 C5.06761916 9.92191148 4.54909835 12.10771518 2.5 15.4375 C-1.13548351 17.70967719 -4.81689424 17.85511002 -9 17 C-11.46003235 15.07792461 -11.98718919 14.03843243 -13 11 C-13.3435053 7.22144167 -13.51278496 4.86950494 -11.5625 1.5625 C-7.74498192 -0.76525493 -4.34382406 -1.01072993 0 0 Z " fill="#079AC3" transform="translate(587,534)"/>
<path d="M0 0 C-2.94588618 2.94588618 -5.92266107 3.37037218 -9.95703125 4.08984375 C-15.43399567 3.9281362 -19.0437269 0.5185943 -23 -3 C-16.3678299 -9.6321701 -6.92665757 -3.34007865 0 0 Z " fill="#F3F8FB" transform="translate(790,554)"/>
<path d="M0 0 C1.3125 2.0625 1.3125 2.0625 2 4 C-1.61973402 5.31626692 -4.09567131 6 -8 6 C-8.66 4.35 -9.32 2.7 -10 1 C-6.29223511 -0.80091438 -3.93496467 -1.48890555 0 0 Z " fill="#E8F2F8" transform="translate(728,557)"/>
</svg>
